<svg width="48" height="48" viewBox="0 0 48 48" fill="none" xmlns="http://www.w3.org/2000/svg">
<path d="M8.10411 18.5784C8.01528 18.7563 7.837 18.9337 7.65872 18.9337L1.69217 19.5562C0.71255 19.6448 0 20.4447 0 21.4225V26.578C0 27.5558 0.712502 28.3556 1.69217 28.4449L7.65872 29.0674C7.837 29.0674 8.01466 29.2454 8.10411 29.4227C8.37122 30.1339 8.63834 30.7558 8.90545 31.3782C8.99428 31.5562 8.99428 31.8228 8.81662 32.0008L4.98765 36.6231C4.45281 37.4223 4.54164 38.4887 5.16532 39.1998L8.81665 42.8444C9.52915 43.5556 10.5976 43.5556 11.3101 42.9331L16.0299 39.1998C16.2082 39.0218 16.3859 39.0218 16.6536 39.1111C17.2773 39.4664 17.9003 39.7336 18.6128 39.911C18.7911 39.9996 18.9687 40.1776 18.9687 40.3555L19.5924 46.311C19.6812 47.2888 20.4832 48 21.4628 48H26.6279C27.6075 48 28.4088 47.2888 28.4983 46.311L29.122 40.3555C29.122 40.1776 29.3003 40.0002 29.478 39.911C30.1905 39.6443 30.8135 39.3777 31.4371 39.1111C31.6154 39.0225 31.8825 39.0225 32.0608 39.1998L36.6917 43.0216C37.4042 43.6441 38.5621 43.5549 39.1852 42.933L42.8365 39.2884C43.549 38.5772 43.549 37.5108 42.9254 36.7996L39.1834 32C39.0051 31.822 39.0051 31.6447 39.0946 31.3775C39.4505 30.7549 39.7182 30.1331 39.8959 29.4219C39.9847 29.244 40.163 29.0666 40.3413 29.0666L46.3078 28.4441C47.2874 28.3555 48 27.555 48 26.5772V21.4222C48 20.4444 47.2875 19.6446 46.3078 19.5552L40.3413 18.9327C40.163 18.9327 39.9853 18.7548 39.8959 18.5774C39.6288 17.8663 39.3617 17.2444 39.0946 16.6219C39.0057 16.444 39.0057 16.1774 39.1834 15.9994L43.0123 11.3771C43.636 10.6659 43.5466 9.51014 42.9235 8.88825L39.2722 5.24371C38.5597 4.53253 37.4913 4.53253 36.7787 5.15504L32.0589 8.88879C31.8806 9.06674 31.7029 9.06674 31.4352 8.97746C30.8115 8.62218 30.1885 8.35494 29.476 8.17761C29.2978 8.08895 29.1201 7.911 29.1201 7.73305L28.4971 1.68902C28.4082 0.711225 27.6063 0 26.6266 0H21.4615C20.4819 0 19.6806 0.711177 19.5911 1.68902L18.9674 7.64448C18.9674 7.82243 18.7892 7.99976 18.6115 8.08904C17.899 8.35566 17.276 8.62227 16.6523 8.88889C16.474 8.97755 16.2069 8.97755 16.0287 8.80022L11.3977 4.97838C10.6852 4.35587 9.52731 4.44515 8.90426 5.06704L5.25292 8.71159C4.54042 9.42277 4.54042 10.4892 5.16409 11.2004L8.99306 15.8227C9.17134 16.0007 9.17134 16.178 9.08189 16.4453C8.63835 17.2445 8.37124 17.867 8.10415 18.5782L8.10411 18.5784ZM24.0446 14.578C29.2097 14.578 33.4841 18.7557 33.4841 23.9999C33.4841 29.2447 29.2097 33.4224 24.0446 33.4224C18.8795 33.4224 14.6051 29.2447 14.6051 24.0005C14.6051 18.7557 18.8795 14.578 24.0446 14.578Z" fill="white"/>
<path d="M8.55147 18.8017L8.57918 18.7462L8.5848 18.7206C8.84114 18.0408 9.097 17.4484 9.51908 16.6879L9.54141 16.6476L9.55603 16.604C9.60791 16.449 9.65805 16.2545 9.63482 16.0453C9.61009 15.8227 9.5098 15.639 9.36499 15.4879L5.54914 10.8815L5.54929 10.8813L5.54003 10.8708C5.08517 10.352 5.08553 9.58512 5.60615 9.06547L9.25748 5.42093C9.70455 4.97469 10.5648 4.91461 11.0688 5.35491L11.0686 5.35506L11.0795 5.36401L15.6954 9.17345C16.0525 9.51096 16.5416 9.4951 16.8596 9.34404C17.4805 9.07859 18.0905 8.81785 18.7867 8.55733L18.812 8.54789L18.836 8.5358C18.9781 8.46441 19.1214 8.35845 19.2354 8.22582C19.3397 8.10437 19.4568 7.9154 19.4668 7.67705L20.0884 1.7411L20.0884 1.7411L20.089 1.73461C20.1544 1.02118 20.7333 0.5 21.4615 0.5H26.6266C27.3552 0.5 27.9343 1.02144 27.9991 1.73426L27.9991 1.73426L27.9997 1.74029L28.6208 7.7651C28.6305 8.00306 28.747 8.1922 28.8516 8.31421C28.9656 8.44726 29.1096 8.55381 29.2534 8.6253L29.3023 8.64962L29.3553 8.66281C30.0165 8.82738 30.5971 9.07545 31.1877 9.41191L31.2304 9.43623L31.277 9.45178C31.4323 9.50354 31.6266 9.55342 31.8356 9.5303C32.0559 9.50593 32.2382 9.40775 32.3887 9.26539L37.0889 5.54718L37.0985 5.53961L37.1077 5.53159C37.628 5.07702 38.3979 5.07748 38.919 5.59759L42.5703 9.24213C43.017 9.688 43.0769 10.5451 42.6364 11.0474L42.6363 11.0473L42.6273 11.0581L38.8108 15.6654C38.4722 16.0223 38.488 16.5116 38.6397 16.8299C38.9057 17.4496 39.1668 18.0584 39.4278 18.7532L39.4373 18.7785L39.4495 18.8026C39.5211 18.9446 39.6273 19.0878 39.7602 19.2015C39.8819 19.3056 40.0709 19.4222 40.3088 19.432L46.256 20.0525L46.2559 20.0526L46.2624 20.0532C46.9791 20.1185 47.5 20.6974 47.5 21.4222V26.5772C47.5 27.3023 46.9788 27.8814 46.2628 27.9461L46.256 27.9468L40.3088 28.5673C40.0715 28.5771 39.8826 28.693 39.7603 28.7973C39.6271 28.9111 39.5203 29.0549 39.4485 29.1986L39.4241 29.2476L39.4108 29.3007C39.246 29.9605 38.9975 30.5398 38.6605 31.1293L38.6361 31.172L38.6204 31.2187C38.5685 31.3737 38.5184 31.5682 38.5416 31.7774C38.566 31.997 38.664 32.1788 38.8057 32.3287L42.531 37.107L42.5399 37.1184L42.5494 37.1292C43.0043 37.648 43.0039 38.4149 42.4833 38.9345L38.832 42.5791C38.3849 43.0253 37.5246 43.0854 37.0207 42.6451L37.0208 42.645L37.01 42.636L32.3941 38.8266C32.0369 38.4891 31.5479 38.5049 31.2298 38.656C30.6089 38.9214 29.9989 39.1822 29.3027 39.4427L29.2775 39.4521L29.2534 39.4642C29.1114 39.5356 28.968 39.6416 28.8541 39.7742C28.7498 39.8956 28.6326 40.0846 28.6227 40.323L28.0011 46.2589L28.001 46.2589L28.0004 46.2654C27.9351 46.9788 27.3561 47.5 26.6279 47.5H21.4628C20.7343 47.5 20.1551 46.9786 20.0904 46.2657L20.0897 46.2589L19.4681 40.323C19.4582 40.0852 19.3417 39.8963 19.2372 39.7744C19.1232 39.6413 18.9792 39.5348 18.8354 39.4633L18.7865 39.439L18.7336 39.4258C18.0724 39.2612 17.4917 39.0131 16.9011 38.6767L16.8584 38.6523L16.8118 38.6368C16.6566 38.585 16.4622 38.5352 16.2533 38.5583C16.033 38.5826 15.8506 38.6808 15.7001 38.8232L11 42.5409L10.9904 42.5485L10.9812 42.5565C10.4608 43.0111 9.69095 43.0106 9.16987 42.4905L5.53108 38.8585C5.06671 38.3187 5.00222 37.5201 5.39013 36.921L9.18923 32.3347C9.52773 31.9778 9.51202 31.4886 9.36032 31.1703C9.09438 30.5506 8.83317 29.9418 8.57219 29.2469L8.56269 29.2216L8.55053 29.1975C8.47891 29.0556 8.37268 28.9124 8.23984 28.7987C8.1181 28.6945 7.92915 28.578 7.69117 28.5681L1.74405 27.9476L1.74406 27.9476L1.73759 27.947C1.02091 27.8816 0.5 27.3028 0.5 26.578V21.4225C0.5 20.6976 1.02096 20.119 1.73724 20.0542L1.73724 20.0542L1.74405 20.0535L7.69116 19.433C7.92851 19.4232 8.11745 19.3074 8.23966 19.203C8.37292 19.0892 8.47974 18.9454 8.55147 18.8017ZM33.9841 23.9999C33.9841 18.4756 29.4819 14.078 24.0446 14.078C18.6073 14.078 14.1051 18.4756 14.1051 24.0005C14.1051 29.5248 18.6073 33.9224 24.0446 33.9224C29.4819 33.9224 33.9841 29.5248 33.9841 23.9999Z" stroke="#A53EFC" stroke-opacity="0.8"/>
</svg>
