<svg width="48" height="48" viewBox="0 0 48 48" fill="none" xmlns="http://www.w3.org/2000/svg">
<path d="M46.8892 27.1982H28.4201C27.8063 27.1982 27.3094 27.6978 27.3094 28.315V46.8832C27.3094 47.5004 27.8063 47.9999 28.4201 47.9999H46.8892C47.503 47.9999 47.9998 47.5004 47.9998 46.8832V28.315C47.9998 27.6978 47.503 27.1982 46.8896 27.1982H46.8892Z" fill="white"/>
<path d="M28.4201 27.6982H46.8892H46.8896C47.2241 27.6982 47.4998 27.9712 47.4998 28.315V46.8832C47.4998 47.2268 47.2243 47.4999 46.8892 47.4999H28.4201C28.085 47.4999 27.8094 47.2268 27.8094 46.8832V28.315C27.8094 27.9714 28.085 27.6982 28.4201 27.6982Z" stroke="#A53EFC" stroke-opacity="0.8"/>
<path d="M46.8891 0H28.42C27.8062 0 27.3094 0.49955 27.3094 1.11672L27.3098 19.685C27.3098 20.3021 27.8066 20.8017 28.4204 20.8017H46.8895C47.5033 20.8017 48.0001 20.3021 48.0001 19.685L47.9997 1.11672C47.9997 0.49955 47.5029 0 46.8895 0H46.8891Z" fill="white"/>
<path d="M28.42 0.5H46.8891H46.8895C47.2241 0.5 47.4997 0.772998 47.4997 1.11672L47.5001 19.685C47.5001 20.0286 47.2246 20.3017 46.8895 20.3017H28.4204C28.0853 20.3017 27.8098 20.0286 27.8098 19.685L27.8094 1.11672C27.8094 1.11672 27.8094 1.11672 27.8094 1.11671C27.8094 0.773108 28.0849 0.5 28.42 0.5Z" stroke="#A53EFC" stroke-opacity="0.8"/>
<path d="M19.5777 27.1982H1.11064C0.496828 27.1982 0 27.6978 0 28.315V46.8832C0 47.5004 0.496828 47.9999 1.11064 47.9999H19.5777C20.1915 47.9999 20.6884 47.5004 20.6884 46.8832V28.315C20.6884 27.6978 20.1915 27.1982 19.5777 27.1982Z" fill="white"/>
<path d="M1.11064 27.6982H19.5777C19.9128 27.6982 20.1884 27.9714 20.1884 28.315V46.8832C20.1884 47.2268 19.9128 47.4999 19.5777 47.4999H1.11064C0.775544 47.4999 0.5 47.2268 0.5 46.8832V28.315C0.5 27.9714 0.775542 27.6982 1.11064 27.6982Z" stroke="#A53EFC" stroke-opacity="0.8"/>
<path d="M19.5777 0H1.11064C0.496828 0 0 0.49955 0 1.11672L0.000389972 19.685C0.000389972 20.3021 0.497218 20.8017 1.11103 20.8017H19.5771C20.1909 20.8017 20.6878 20.3021 20.6878 19.685V1.11672C20.6878 0.49955 20.1909 0 19.5771 0H19.5777Z" fill="white"/>
<path d="M1.11064 0.5H19.5771C19.9122 0.5 20.1878 0.773114 20.1878 1.11672V19.685C20.1878 20.0286 19.9122 20.3017 19.5771 20.3017H1.11103C0.775932 20.3017 0.50039 20.0286 0.50039 19.685L0.5 1.11672C0.5 1.11672 0.5 1.11672 0.5 1.11671C0.500006 0.773108 0.775546 0.5 1.11064 0.5Z" stroke="#A53EFC" stroke-opacity="0.8"/>
</svg>
