<svg width="48" height="48" viewBox="0 0 48 48" fill="none" xmlns="http://www.w3.org/2000/svg">
<mask id="path-1-inside-1_182_210" fill="white">
<path fill-rule="evenodd" clip-rule="evenodd" d="M23.9512 0.001025C23.495 0.0213758 23.0993 0.337015 22.9588 0.792708L17.8208 17.4936L1.09288 17.4589C0.619565 17.4581 0.199516 17.7778 0.0534022 18.2498C-0.0927019 18.7219 0.0678607 19.239 0.451 19.5303L14.0056 29.8171L8.80095 46.5006L8.80133 46.5002C8.65408 46.9723 8.81388 47.4894 9.19703 47.7815C9.57979 48.0732 10.0984 48.0728 10.4808 47.7803L23.9974 37.4353L37.5188 47.7803V47.7799C37.9012 48.0724 38.4198 48.0728 38.803 47.7811C39.1857 47.489 39.3455 46.9715 39.1983 46.4998L33.9937 29.8163L47.5482 19.5295L47.5486 19.5299C47.9321 19.2386 48.0927 18.7214 47.9466 18.249C47.8001 17.7769 47.3805 17.4573 46.9067 17.4585L30.1788 17.4932L25.035 0.792299C24.8844 0.30308 24.4411 -0.0205299 23.9514 0.00101408L23.9512 0.001025Z"/>
</mask>
<path fill-rule="evenodd" clip-rule="evenodd" d="M23.9512 0.001025C23.495 0.0213758 23.0993 0.337015 22.9588 0.792708L17.8208 17.4936L1.09288 17.4589C0.619565 17.4581 0.199516 17.7778 0.0534022 18.2498C-0.0927019 18.7219 0.0678607 19.239 0.451 19.5303L14.0056 29.8171L8.80095 46.5006L8.80133 46.5002C8.65408 46.9723 8.81388 47.4894 9.19703 47.7815C9.57979 48.0732 10.0984 48.0728 10.4808 47.7803L23.9974 37.4353L37.5188 47.7803V47.7799C37.9012 48.0724 38.4198 48.0728 38.803 47.7811C39.1857 47.489 39.3455 46.9715 39.1983 46.4998L33.9937 29.8163L47.5482 19.5295L47.5486 19.5299C47.9321 19.2386 48.0927 18.7214 47.9466 18.249C47.8001 17.7769 47.3805 17.4573 46.9067 17.4585L30.1788 17.4932L25.035 0.792299C24.8844 0.30308 24.4411 -0.0205299 23.9514 0.00101408L23.9512 0.001025Z" fill="white"/>
<path d="M23.9512 0.001025L23.9113 -0.998191L23.9066 -0.997981L23.9512 0.001025ZM22.9588 0.792708L22.0032 0.498178L22.003 0.498661L22.9588 0.792708ZM17.8208 17.4936L17.8188 18.4936L18.559 18.4952L18.7766 17.7877L17.8208 17.4936ZM1.09288 17.4589L1.09496 16.4589L1.09457 16.4589L1.09288 17.4589ZM0.0534022 18.2498L-0.901883 17.9541L-0.901889 17.9541L0.0534022 18.2498ZM0.451 19.5303L-0.154204 20.3264L-0.153535 20.3269L0.451 19.5303ZM14.0056 29.8171L14.9602 30.1149L15.1692 29.4448L14.6101 29.0205L14.0056 29.8171ZM8.80095 46.5006L7.84632 46.2028L9.52468 47.1907L8.80095 46.5006ZM8.80133 46.5002L9.75597 46.798L8.07759 45.8101L8.80133 46.5002ZM9.19703 47.7815L8.59075 48.5768L8.59089 48.5769L9.19703 47.7815ZM10.4808 47.7803L11.0883 48.5746L11.0886 48.5744L10.4808 47.7803ZM23.9974 37.4353L24.605 36.6411L23.9973 36.1761L23.3896 36.6412L23.9974 37.4353ZM37.5188 47.7803L36.9112 48.5745L38.5188 49.8045V47.7803H37.5188ZM37.5188 47.7799L38.1264 46.9857L36.5188 45.756V47.7799H37.5188ZM38.803 47.7811L39.4087 48.5768L39.4096 48.5761L38.803 47.7811ZM39.1983 46.4998L38.2437 46.7976L38.2437 46.7978L39.1983 46.4998ZM33.9937 29.8163L33.3891 29.0197L32.83 29.444L33.0391 30.1141L33.9937 29.8163ZM47.5482 19.5295L48.272 18.8394L47.6554 18.1928L46.9437 18.7329L47.5482 19.5295ZM47.5486 19.5299L46.8249 20.22L47.4417 20.8669L48.1535 20.3262L47.5486 19.5299ZM47.9466 18.249L48.902 17.9536L48.9017 17.9526L47.9466 18.249ZM46.9067 17.4585L46.9088 18.4585H46.9093L46.9067 17.4585ZM30.1788 17.4932L29.2231 17.7876L29.4409 18.4948L30.1809 18.4932L30.1788 17.4932ZM25.035 0.792299L24.0793 1.08664L24.0793 1.08665L25.035 0.792299ZM23.9514 0.00101408L23.9913 1.00023L23.9954 1.00005L23.9514 0.00101408ZM23.9066 -0.997981C23.004 -0.957715 22.2607 -0.337306 22.0032 0.498178L23.9145 1.08724C23.9379 1.01134 23.986 1.00047 23.9957 1.00003L23.9066 -0.997981ZM22.003 0.498661L16.865 17.1996L18.7766 17.7877L23.9146 1.08675L22.003 0.498661ZM17.8229 16.4936L1.09496 16.4589L1.09081 18.4589L17.8188 18.4936L17.8229 16.4936ZM1.09457 16.4589C0.156086 16.4573 -0.633864 17.0882 -0.901883 17.9541L1.00869 18.5455C1.0329 18.4673 1.08304 18.4589 1.0912 18.4589L1.09457 16.4589ZM-0.901889 17.9541C-1.16772 18.813 -0.883679 19.7718 -0.154204 20.3264L1.0562 18.7342C1.03925 18.7213 1.02015 18.698 1.00876 18.6613C0.997334 18.6245 0.996854 18.5837 1.00869 18.5455L-0.901889 17.9541ZM-0.153535 20.3269L13.401 30.6136L14.6101 29.0205L1.05554 18.7337L-0.153535 20.3269ZM13.0509 29.5193L7.84632 46.2028L9.75557 46.7984L14.9602 30.1149L13.0509 29.5193ZM9.52468 47.1907L9.52506 47.1903L8.07759 45.8101L8.07721 45.8105L9.52468 47.1907ZM7.84669 46.2025C7.57863 47.0619 7.86175 48.021 8.59075 48.5768L9.8033 46.9863C9.78594 46.973 9.76697 46.9496 9.75574 46.9132C9.74449 46.8768 9.74402 46.8363 9.75597 46.798L7.84669 46.2025ZM8.59089 48.5769C9.33221 49.1418 10.3479 49.141 11.0883 48.5746L9.87326 46.986C9.85751 46.9981 9.84575 47 9.83816 47C9.83056 47 9.81884 46.9981 9.80316 46.9862L8.59089 48.5769ZM11.0886 48.5744L24.6051 38.2294L23.3896 36.6412L9.87302 46.9862L11.0886 48.5744ZM23.3897 38.2295L36.9112 48.5745L38.1265 46.9861L24.605 36.6411L23.3897 38.2295ZM38.5188 47.7803V47.7799H36.5188V47.7803H38.5188ZM36.9113 48.5742C37.6519 49.1408 38.6673 49.1412 39.4087 48.5768L38.1973 46.9854C38.1812 46.9977 38.1692 46.9996 38.1615 46.9996C38.1538 46.9996 38.1421 46.9977 38.1264 46.9857L36.9113 48.5742ZM39.4096 48.5761C40.1379 48.0203 40.421 47.0609 40.1529 46.2018L38.2437 46.7978C38.2555 46.8357 38.2552 46.8762 38.2439 46.9129C38.2325 46.9496 38.2134 46.9731 38.1963 46.9862L39.4096 48.5761ZM40.1529 46.202L34.9483 29.5185L33.0391 30.1141L38.2437 46.7976L40.1529 46.202ZM34.5982 30.6128L48.1528 20.3261L46.9437 18.7329L33.3891 29.0197L34.5982 30.6128ZM46.8245 20.2196L46.8249 20.22L48.2724 18.8398L48.272 18.8394L46.8245 20.2196ZM48.1535 20.3262C48.8838 19.7715 49.1676 18.8126 48.902 17.9536L46.9912 18.5444C47.0032 18.5831 47.0026 18.624 46.9912 18.6607C46.9799 18.6973 46.9608 18.7206 46.9438 18.7336L48.1535 20.3262ZM48.9017 17.9526C48.6333 17.0877 47.8441 16.4561 46.9042 16.4585L46.9093 18.4585C46.9169 18.4585 46.9285 18.4604 46.944 18.4722C46.9601 18.4844 46.9798 18.5074 46.9915 18.5454L48.9017 17.9526ZM46.9047 16.4585L30.1767 16.4932L30.1809 18.4932L46.9088 18.4585L46.9047 16.4585ZM31.1345 17.1989L25.9907 0.497952L24.0793 1.08665L29.2231 17.7876L31.1345 17.1989ZM25.9907 0.497957C25.7144 -0.399175 24.8797 -1.04079 23.9075 -0.998019L23.9954 1.00005C24.0034 0.999697 24.0149 1.00121 24.0307 1.01274C24.047 1.02464 24.0673 1.04763 24.0793 1.08664L25.9907 0.497957ZM23.9116 -0.998191L23.9113 -0.99818L23.991 1.00023L23.9913 1.00022L23.9116 -0.998191Z" fill="#A53EFC" fill-opacity="0.8" mask="url(#path-1-inside-1_182_210)"/>
</svg>
