<svg width="151" height="47" viewBox="0 0 151 47" fill="none" xmlns="http://www.w3.org/2000/svg">
<path d="M0.139205 47V0.454544H30.9574V8.56818H9.98011V19.6591H28.9119V27.7727H9.98011V47H0.139205ZM37.5767 47V0.454544H55.9403C59.4555 0.454544 62.4555 1.08333 64.9403 2.34091C67.4403 3.58333 69.3419 5.34848 70.6449 7.63636C71.9631 9.90909 72.6222 12.5833 72.6222 15.6591C72.6222 18.75 71.9555 21.4091 70.6222 23.6364C69.2888 25.8485 67.357 27.5455 64.8267 28.7273C62.3116 29.9091 59.2661 30.5 55.6903 30.5H43.3949V22.5909H54.0994C55.9782 22.5909 57.5388 22.3333 58.7812 21.8182C60.0237 21.303 60.9479 20.5303 61.554 19.5C62.1752 18.4697 62.4858 17.1894 62.4858 15.6591C62.4858 14.1136 62.1752 12.8106 61.554 11.75C60.9479 10.6894 60.0161 9.88636 58.7585 9.34091C57.5161 8.7803 55.9479 8.5 54.054 8.5H47.4176V47H37.5767ZM62.7131 25.8182L74.2812 47H63.4176L52.0994 25.8182H62.7131ZM79.5767 47V0.454544H110.94V8.56818H89.4176V19.6591H109.327V27.7727H89.4176V38.8864H111.031V47H79.5767ZM118.764 47V0.454544H150.128V8.56818H128.605V19.6591H148.514V27.7727H128.605V38.8864H150.219V47H118.764Z" fill="#FFC700"/>
</svg>
