<svg width="277" height="140" viewBox="0 0 277 140" fill="none" xmlns="http://www.w3.org/2000/svg">
<path d="M6 0.226497L11.7735 6L6 11.7735L0.226471 6L6 0.226497ZM271 139.773L265.226 134L271 128.226L276.774 134L271 139.773ZM7 6V47.9811H5V6H7ZM28 68.9811H249V70.9811H28V68.9811ZM272 91.9811V134H270V91.9811H272ZM249 68.9811C261.703 68.9811 272 79.2785 272 91.9811H270C270 80.3831 260.598 70.9811 249 70.9811V68.9811ZM7 47.9811C7 59.579 16.402 68.9811 28 68.9811V70.9811C15.2974 70.9811 5 60.6836 5 47.9811H7Z" fill="url(#paint0_linear_182_341)"/>
<defs>
<linearGradient id="paint0_linear_182_341" x1="135.919" y1="167.34" x2="135.919" y2="-69.0315" gradientUnits="userSpaceOnUse">
<stop stop-color="#A53EFC"/>
<stop offset="1" stop-color="#DD68F1"/>
</linearGradient>
</defs>
</svg>
