<svg width="277" height="140" viewBox="0 0 277 140" fill="none" xmlns="http://www.w3.org/2000/svg">
<path d="M271 0.226497L265.227 6L271 11.7735L276.774 6L271 0.226497ZM6 139.773L11.7735 134L6 128.226L0.226497 134L6 139.773ZM270 6V47.9811H272V6H270ZM249 68.9811H28V70.9811H249V68.9811ZM5 91.9811V134H7V91.9811H5ZM28 68.9811C15.2974 68.9811 5 79.2785 5 91.9811H7C7 80.3831 16.402 70.9811 28 70.9811V68.9811ZM270 47.9811C270 59.579 260.598 68.9811 249 68.9811V70.9811C261.703 70.9811 272 60.6836 272 47.9811H270Z" fill="url(#paint0_linear_182_342)"/>
<defs>
<linearGradient id="paint0_linear_182_342" x1="141.081" y1="167.34" x2="141.081" y2="-69.0315" gradientUnits="userSpaceOnUse">
<stop stop-color="#A53EFC"/>
<stop offset="1" stop-color="#DD68F1"/>
</linearGradient>
</defs>
</svg>
