<svg width="830" height="831" viewBox="0 0 830 831" fill="none" xmlns="http://www.w3.org/2000/svg">
<path d="M35.3535 549.856L-63.4113 648.775L-59.3665 652.794L40.9599 552.314L43.2896 479.277L168.448 353.837V287.968C172.503 287.561 176.287 285.75 179.149 282.848C181.982 280.047 183.801 276.381 184.318 272.43C184.835 268.479 184.02 264.469 182.003 261.033C179.986 257.596 176.881 254.931 173.179 253.457C169.477 251.982 165.39 251.784 161.563 252.893C157.736 254.002 154.387 256.354 152.047 259.579C149.706 262.804 148.507 266.716 148.639 270.699C148.771 274.681 150.227 278.506 152.776 281.568C155.324 284.631 158.821 286.757 162.714 287.61V351.61L37.6831 476.845L35.3535 549.856ZM158.054 278.88C155.8 276.616 154.534 273.551 154.534 270.355C154.534 267.16 155.8 264.095 158.054 261.831C159.742 260.135 161.895 258.979 164.24 258.508C166.586 258.038 169.018 258.274 171.229 259.187C173.44 260.1 175.331 261.648 176.661 263.637C177.991 265.625 178.701 267.963 178.701 270.355C178.701 272.747 177.991 275.086 176.661 277.074C175.331 279.062 173.44 280.611 171.229 281.524C169.018 282.437 166.586 282.673 164.24 282.202C161.895 281.732 159.742 280.575 158.054 278.88ZM-8.21765 448.019L116.941 322.579V255.303L216.781 155.258C220.709 157.458 225.322 158.099 229.701 157.053C234.081 156.008 237.906 153.351 240.416 149.613C242.926 145.875 243.937 141.328 243.247 136.879C242.558 132.429 240.218 128.402 236.694 125.599C233.17 122.796 228.721 121.423 224.23 121.752C219.739 122.08 215.537 124.088 212.459 127.374C209.381 130.661 207.653 134.985 207.619 139.488C207.585 143.991 209.247 148.341 212.275 151.674L111.181 253.024V320.301L-13.8752 445.562L-16.1793 518.599L-114.944 617.491L-110.925 621.536L-10.5473 521.031L-8.21765 448.019ZM216.857 131.245C218.547 129.553 220.7 128.401 223.044 127.933C225.388 127.465 227.819 127.703 230.028 128.617C232.237 129.531 234.125 131.08 235.454 133.068C236.782 135.055 237.491 137.392 237.491 139.783C237.491 142.173 236.782 144.51 235.454 146.497C234.125 148.485 232.237 150.034 230.028 150.948C227.819 151.862 225.388 152.1 223.044 151.632C220.7 151.164 218.547 150.012 216.857 148.32C214.59 146.051 213.311 142.978 213.299 139.77C213.297 138.184 213.611 136.613 214.222 135.15C214.833 133.686 215.729 132.359 216.857 131.245ZM220.544 342.88L98.4319 465.171C99.6574 467.359 100.051 469.915 99.54 472.37C99.0291 474.824 97.6481 477.011 95.6516 478.528C93.6551 480.045 91.1777 480.788 88.676 480.622C86.1743 480.456 83.817 479.391 82.0385 477.624C80.2601 475.857 79.1803 473.507 78.9983 471.006C78.8164 468.505 79.5444 466.023 81.0483 464.017C82.5522 462.011 84.7306 460.616 87.1819 460.09C89.6331 459.563 92.1921 459.941 94.3871 461.152L217.267 337.99L273.946 316.359C273.934 313.955 274.788 311.627 276.351 309.8C277.915 307.974 280.083 306.772 282.461 306.413C284.838 306.054 287.265 306.562 289.298 307.846C291.331 309.129 292.834 311.101 293.533 313.401C294.231 315.701 294.079 318.176 293.103 320.373C292.127 322.57 290.393 324.343 288.218 325.367C286.042 326.391 283.571 326.597 281.256 325.949C278.941 325.301 276.937 323.841 275.609 321.837L220.544 342.88ZM565.376 335.2C560.665 335.169 556.134 337.011 552.781 340.32C551.138 341.987 549.826 343.95 548.915 346.106L485.222 331.616L342.016 474.976L283.622 460.64L-83.1745 826.08L-79.1297 830.125L285.363 466.963L343.782 481.453L487.142 338.093L547.738 351.917C547.738 352.326 547.738 352.711 547.738 353.12C547.738 356.67 548.792 360.139 550.767 363.089C552.741 366.039 555.548 368.335 558.83 369.688C562.112 371.04 565.721 371.388 569.201 370.686C572.68 369.984 575.873 368.264 578.374 365.745C580.875 363.227 582.572 360.022 583.249 356.537C583.926 353.053 583.552 349.445 582.176 346.173C580.8 342.901 578.484 340.111 575.52 338.158C572.556 336.204 569.079 335.175 565.529 335.2H565.376ZM573.901 361.517C571.925 363.496 569.324 364.728 566.541 365.004C563.758 365.279 560.966 364.581 558.64 363.028C556.314 361.475 554.599 359.163 553.788 356.487C552.976 353.811 553.117 350.937 554.188 348.353C555.258 345.77 557.192 343.638 559.659 342.32C562.125 341.003 564.973 340.582 567.715 341.13C570.457 341.677 572.925 343.158 574.697 345.322C576.469 347.485 577.436 350.196 577.433 352.992C577.442 354.581 577.134 356.155 576.528 357.623C575.921 359.091 575.028 360.423 573.901 361.543V361.517ZM432.64 439.239C434.617 440.932 435.876 443.316 436.158 445.904C436.441 448.493 435.727 451.092 434.162 453.172C432.596 455.253 430.297 456.659 427.732 457.105C425.166 457.55 422.527 457.002 420.352 455.571L348.16 527.968L284.749 515.168L209.075 590.944C210.262 593.105 210.63 595.622 210.11 598.032C209.591 600.442 208.219 602.584 206.247 604.064C204.275 605.544 201.835 606.263 199.376 606.089C196.917 605.914 194.603 604.859 192.859 603.115C191.116 601.372 190.06 599.058 189.886 596.598C189.711 594.139 190.43 591.699 191.91 589.727C193.39 587.755 195.532 586.384 197.942 585.864C200.353 585.345 202.869 585.712 205.03 586.899L282.88 508.947L346.291 521.747L416.409 451.527C414.935 449.352 414.352 446.694 414.782 444.102C415.211 441.51 416.621 439.183 418.719 437.601C420.817 436.02 423.443 435.305 426.053 435.605C428.663 435.905 431.058 437.197 432.742 439.213L432.64 439.239ZM209.638 31.3025C206.06 28.6783 201.626 27.4969 197.216 27.9931C192.807 28.4893 188.746 30.6269 185.841 33.9807C182.935 37.3345 181.399 41.6588 181.536 46.0939C181.674 50.529 183.475 54.7498 186.583 57.9171C189.691 61.0844 193.876 62.9662 198.308 63.1882C202.74 63.4102 207.092 61.9562 210.501 59.1153C213.909 56.2744 216.124 52.2548 216.704 47.8557C217.284 43.4566 216.187 39.0003 213.632 35.3729L254.848 -5.84311L250.88 -35.4623L466.33 -251.04L462.285 -255.059L244.685 -37.4591L248.806 -7.8399L209.638 31.3025ZM207.616 54.1121C205.641 56.0902 203.041 57.3222 200.259 57.5984C197.478 57.8745 194.686 57.1777 192.361 55.6265C190.035 54.0754 188.319 51.766 187.506 49.0916C186.692 46.4174 186.831 43.5437 187.898 40.9602C188.965 38.3766 190.896 36.2431 193.36 34.9231C195.824 33.6031 198.669 33.1783 201.411 33.721C204.154 34.2637 206.623 35.7404 208.398 37.8994C210.174 40.0585 211.146 42.7664 211.149 45.5617C211.157 47.1502 210.85 48.7244 210.243 50.1925C209.636 51.6606 208.743 52.9931 207.616 54.1121ZM829.03 -246.432L824.985 -250.477L755.635 -181.126V-152.531L652.979 -49.8495V-23.6095L612.403 16.9665L587.494 13.6129L423.45 177.658C420.555 175.726 417.15 174.701 413.67 174.714C409.645 174.709 405.737 176.07 402.585 178.573C399.432 181.077 397.222 184.575 396.315 188.497C395.408 192.419 395.858 196.533 397.592 200.166C399.325 203.799 402.239 206.737 405.858 208.501C409.476 210.264 413.586 210.747 417.516 209.873C421.445 208.998 424.961 206.817 427.491 203.685C430.02 200.554 431.413 196.657 431.441 192.632C431.47 188.606 430.133 184.69 427.648 181.523L589.542 19.6545L614.4 23.0081L658.688 -21.2287V-47.4943L761.37 -150.15V-178.771L829.03 -246.432ZM422.195 201.031C420.219 203.009 417.618 204.242 414.835 204.517C412.052 204.793 409.26 204.094 406.934 202.541C404.609 200.988 402.894 198.677 402.082 196.001C401.27 193.325 401.411 190.45 402.482 187.867C403.553 185.283 405.486 183.151 407.953 181.834C410.42 180.517 413.267 180.096 416.009 180.643C418.752 181.19 421.219 182.672 422.992 184.835C424.764 186.998 425.731 189.709 425.728 192.506C425.733 194.09 425.424 195.659 424.817 197.123C424.211 198.586 423.319 199.914 422.195 201.031ZM405.273 284.538L400.896 330.08L376.013 354.938L327.219 362.618L294.144 395.642C291.84 394.078 289.202 393.076 286.441 392.718C283.68 392.359 280.873 392.654 278.247 393.578C275.62 394.501 273.247 396.029 271.319 398.037C269.39 400.045 267.959 402.477 267.142 405.139C266.325 407.8 266.143 410.617 266.613 413.361C267.082 416.105 268.189 418.701 269.844 420.94C271.5 423.179 273.657 424.997 276.144 426.25C278.63 427.503 281.376 428.155 284.16 428.154C288.891 428.154 293.429 426.283 296.786 422.95C300.143 419.617 302.046 415.092 302.08 410.362C302.063 406.467 300.778 402.683 298.419 399.584L330.061 367.943L378.88 360.263L406.374 332.64L410.752 287.2L719.718 -21.8431L715.673 -25.7599L405.273 284.538ZM292.633 418.887C291.006 420.533 288.94 421.677 286.681 422.183C284.422 422.69 282.065 422.536 279.89 421.741C277.716 420.946 275.816 419.543 274.416 417.699C273.016 415.855 272.175 413.648 271.994 411.34C271.812 409.032 272.297 406.72 273.392 404.68C274.486 402.64 276.144 400.957 278.167 399.832C280.19 398.707 282.494 398.187 284.805 398.334C287.115 398.48 289.335 399.287 291.2 400.659L293.76 403.219C295.47 405.534 296.294 408.384 296.083 411.254C295.871 414.123 294.639 416.822 292.608 418.861L292.633 418.887ZM559.898 -135.174L467.328 -42.6047L471.373 -12.9599L431.258 27.1297C432.458 29.2831 432.842 31.7975 432.337 34.2109C431.833 36.6243 430.475 38.7748 428.512 40.2673C426.55 41.7598 424.115 42.4941 421.654 42.3353C419.194 42.1765 416.873 41.1353 415.119 39.403C413.365 37.6707 412.294 35.3635 412.104 32.9053C411.914 30.4471 412.618 28.0028 414.085 26.0216C415.553 24.0403 417.686 22.6551 420.093 22.1203C422.5 21.5855 425.019 21.9372 427.187 23.1105L465.331 -15.0335L461.286 -44.6527L555.878 -139.219L559.898 -135.174ZM408.013 -83.9743L510.669 -186.63H536.934L577.51 -227.206L574.131 -252.115L740.07 -418.054L744.115 -414.01L580.275 -250.17L583.68 -225.286L539.289 -181.049H513.049L410.368 -78.3935H381.773L317.184 -13.8047C318.26 -11.5894 318.502 -9.06052 317.865 -6.68149C317.228 -4.30243 315.755 -2.23267 313.716 -0.851562C311.677 0.529572 309.208 1.12949 306.763 0.838257C304.317 0.547028 302.058 -0.615845 300.401 -2.43723C298.743 -4.25858 297.797 -6.61642 297.736 -9.07852C297.676 -11.5406 298.505 -13.942 300.071 -15.8426C301.638 -17.7431 303.836 -19.0154 306.265 -19.4264C308.693 -19.8373 311.188 -19.3593 313.293 -18.0799L379.392 -84.1023L408.013 -83.9743ZM-132.915 362.234L-129.536 387.143L-295.475 553.082L-299.52 549.037L-135.68 385.197L-139.059 360.288L-94.72 315.821H-68.48L34.2015 213.165H62.8224L127.411 148.576C126.298 146.375 126.017 143.847 126.619 141.455C127.221 139.064 128.666 136.97 130.689 135.558C132.711 134.147 135.175 133.513 137.628 133.772C140.08 134.032 142.356 135.168 144.038 136.972C145.72 138.775 146.695 141.125 146.783 143.59C146.871 146.055 146.066 148.468 144.517 150.387C142.968 152.306 140.778 153.602 138.351 154.036C135.923 154.469 133.42 154.013 131.302 152.749L65.1775 218.874H36.5823L-66.0736 321.53H-92.3392L-132.915 362.234ZM90.8799 32.4545L95.2575 -12.9599L120.141 -37.8431L168.96 -45.5231L202.01 -78.6751C204.684 -76.8618 207.802 -75.8111 211.029 -75.6359C214.256 -75.4608 217.469 -76.1678 220.325 -77.6809C223.18 -79.1941 225.569 -81.4564 227.236 -84.2249C228.903 -86.9934 229.784 -90.1636 229.786 -93.3951C229.803 -95.7243 229.36 -98.0341 228.481 -100.191C227.602 -102.348 226.306 -104.311 224.666 -105.965C223.017 -107.62 221.058 -108.933 218.901 -109.829C216.744 -110.725 214.432 -111.186 212.096 -111.186C209.76 -111.186 207.447 -110.725 205.29 -109.829C203.133 -108.933 201.175 -107.62 199.526 -105.965C197.887 -104.31 196.592 -102.348 195.713 -100.19C194.834 -98.0334 194.39 -95.7242 194.406 -93.3951C194.337 -89.5155 195.562 -85.7233 197.888 -82.6175L166.221 -50.9503L117.427 -43.2703L89.7791 -15.5199L85.4016 29.8689L-223.539 338.81L-219.52 342.855L90.8799 32.4545ZM203.52 -101.92C205.781 -104.18 208.847 -105.45 212.045 -105.45C215.242 -105.45 218.308 -104.18 220.57 -101.92C221.703 -100.81 222.602 -99.4828 223.213 -98.0184C223.825 -96.5541 224.136 -94.9819 224.128 -93.3951C224.143 -91.145 223.529 -88.9354 222.354 -87.0163C221.179 -85.0971 219.491 -83.545 217.48 -82.5355C215.469 -81.526 213.216 -81.0994 210.975 -81.3039C208.734 -81.5084 206.595 -82.3358 204.8 -83.6927L202.24 -86.2527C200.528 -88.5679 199.705 -91.4212 199.921 -94.2924C200.137 -97.1636 201.378 -99.8615 203.418 -101.894L203.52 -101.92ZM329.702 228.32C329.707 217.585 326.529 207.09 320.568 198.161C314.608 189.233 306.134 182.273 296.217 178.161C286.301 174.049 275.388 172.971 264.858 175.062C254.329 177.153 244.656 182.32 237.063 189.909C229.471 197.498 224.299 207.169 222.203 217.697C220.107 228.226 221.18 239.139 225.287 249.058C229.394 258.976 236.35 267.454 245.276 273.418C254.201 279.383 264.695 282.567 275.43 282.567C289.807 282.539 303.586 276.815 313.749 266.647C323.913 256.479 329.631 242.696 329.651 228.32H329.702ZM275.43 276.96C265.81 276.96 256.406 274.107 248.407 268.763C240.409 263.418 234.174 255.822 230.493 246.934C226.811 238.046 225.848 228.266 227.725 218.831C229.602 209.396 234.234 200.729 241.037 193.926C247.839 187.124 256.506 182.492 265.941 180.615C275.376 178.738 285.156 179.701 294.044 183.383C302.932 187.064 310.528 193.298 315.873 201.297C321.218 209.296 324.07 218.7 324.07 228.32C324.043 241.211 318.9 253.565 309.77 262.666C300.64 271.767 288.27 276.871 275.379 276.858L275.43 276.96ZM275.43 189.127C267.657 189.121 260.057 191.422 253.592 195.737C247.126 200.051 242.085 206.187 239.107 213.367C236.129 220.547 235.347 228.449 236.861 236.073C238.374 243.697 242.115 250.702 247.609 256.2C253.104 261.698 260.106 265.443 267.729 266.962C275.352 268.48 283.255 267.703 290.437 264.73C297.619 261.756 303.757 256.72 308.076 250.257C312.395 243.794 314.701 236.196 314.701 228.423C314.707 223.253 313.695 218.133 311.723 213.355C309.75 208.577 306.855 204.235 303.203 200.576C299.552 196.917 295.215 194.014 290.441 192.031C285.666 190.049 280.548 189.027 275.379 189.024L275.43 189.127ZM275.43 261.959C268.791 261.959 262.302 259.99 256.782 256.301C251.262 252.612 246.96 247.369 244.421 241.234C241.882 235.1 241.218 228.351 242.515 221.84C243.812 215.329 247.011 209.349 251.708 204.656C256.404 199.964 262.386 196.769 268.898 195.477C275.41 194.185 282.159 194.853 288.292 197.397C294.424 199.942 299.663 204.247 303.348 209.77C307.033 215.292 308.997 221.784 308.992 228.423C308.945 237.306 305.382 245.81 299.084 252.075C292.785 258.34 284.263 261.856 275.379 261.856L275.43 261.959ZM293.914 228.423C293.914 232.078 292.829 235.652 290.799 238.691C288.768 241.731 285.881 244.1 282.503 245.499C279.126 246.898 275.41 247.264 271.824 246.551C268.239 245.837 264.946 244.077 262.361 241.492C259.776 238.907 258.015 235.614 257.302 232.028C256.589 228.443 256.955 224.727 258.354 221.349C259.753 217.972 262.122 215.085 265.162 213.054C268.201 211.023 271.775 209.939 275.43 209.939C280.308 209.946 284.984 211.883 288.438 215.327C291.892 218.771 293.842 223.443 293.862 228.32L293.914 228.423ZM343.578 153.44H322.867V132.627H343.578V153.44ZM343.578 118.931H322.867V98.1185H343.578V118.931ZM343.578 84.4225H322.867V63.6097H343.578V84.4225ZM343.578 49.8881H322.867V29.1009H343.578V49.8881ZM285.747 132.627H306.457V153.44H285.747V132.627ZM306.457 118.829H285.747V98.1185H306.457V118.829Z" fill="url(#paint0_linear_60_51)" fill-opacity="0.1"/>
<defs>
<linearGradient id="paint0_linear_60_51" x1="770.5" y1="-163.5" x2="-2.50007" y2="771" gradientUnits="userSpaceOnUse">
<stop stop-color="#A53EFC" stop-opacity="0"/>
<stop offset="1" stop-color="#A53EFC"/>
</linearGradient>
</defs>
</svg>
