<svg width="830" height="831" viewBox="0 0 830 831" fill="none" xmlns="http://www.w3.org/2000/svg">
<path d="M794.647 281.144L893.411 182.226L889.367 178.206L789.04 278.686L786.711 351.723L661.527 477.163V543.134C657.518 543.552 653.77 545.319 650.898 548.148C648.026 550.976 646.202 554.697 645.724 558.699C645.246 562.701 646.143 566.747 648.268 570.172C650.393 573.597 653.62 576.198 657.418 577.547C661.216 578.896 665.36 578.914 669.169 577.597C672.979 576.28 676.227 573.707 678.381 570.3C680.535 566.894 681.467 562.856 681.023 558.85C680.58 554.843 678.787 551.107 675.939 548.254C673.56 545.858 670.537 544.204 667.235 543.493V479.493L792.317 354.232L794.647 281.144ZM671.946 552.12C674.206 554.381 675.476 557.448 675.476 560.645C675.476 563.842 674.206 566.909 671.946 569.17C670.835 570.302 669.508 571.2 668.044 571.812C666.579 572.423 665.008 572.734 663.421 572.728C661.431 572.734 659.47 572.249 657.713 571.316C655.956 570.382 654.457 569.029 653.348 567.376C652.24 565.724 651.556 563.823 651.359 561.843C651.161 559.863 651.456 557.865 652.217 556.026C652.978 554.187 654.181 552.565 655.719 551.303C657.257 550.041 659.084 549.178 661.036 548.792C662.988 548.405 665.005 548.507 666.908 549.088C668.811 549.668 670.542 550.71 671.946 552.12ZM838.346 382.93L713.187 508.37V575.646L613.347 675.691C609.593 673.571 605.196 672.888 600.976 673.77C596.755 674.651 593 677.038 590.409 680.484C587.818 683.93 586.568 688.201 586.894 692.5C587.219 696.8 589.096 700.834 592.176 703.851C595.5 706.927 599.873 708.617 604.401 708.576C608.929 708.536 613.271 706.768 616.539 703.634C619.808 700.499 621.756 696.235 621.986 691.713C622.216 687.19 620.71 682.75 617.776 679.301L718.896 578.053V510.75L843.978 385.49L846.307 312.453L945.072 213.56L941.027 209.515L840.675 310.021L838.346 382.93ZM613.143 699.755C611.169 701.747 608.566 702.992 605.777 703.278C602.988 703.564 600.186 702.874 597.849 701.324C595.512 699.775 593.786 697.462 592.964 694.782C592.142 692.101 592.276 689.219 593.343 686.626C594.41 684.033 596.343 681.89 598.813 680.564C601.284 679.238 604.137 678.81 606.888 679.353C609.639 679.897 612.115 681.378 613.896 683.544C615.676 685.71 616.649 688.427 616.65 691.23C616.654 692.812 616.347 694.379 615.745 695.842C615.143 697.305 614.259 698.635 613.143 699.755ZM609.431 488.12L731.568 365.829C730.343 363.642 729.949 361.085 730.46 358.63C730.971 356.176 732.352 353.989 734.349 352.472C736.345 350.956 738.822 350.212 741.324 350.378C743.826 350.544 746.183 351.609 747.962 353.376C749.74 355.143 750.82 357.494 751.002 359.994C751.184 362.495 750.456 364.977 748.952 366.983C747.448 368.989 745.27 370.384 742.818 370.91C740.367 371.437 737.808 371.06 735.613 369.848L612.733 493.01L556.08 514.539C556.179 516.627 555.637 518.696 554.526 520.467C553.415 522.238 551.789 523.626 549.866 524.446C547.943 525.265 545.815 525.476 543.768 525.051C541.721 524.625 539.854 523.584 538.416 522.066C537.455 521.104 536.692 519.963 536.172 518.706C535.651 517.45 535.383 516.104 535.383 514.744C535.383 513.384 535.651 512.038 536.172 510.782C536.692 509.525 537.455 508.384 538.416 507.423C539.378 506.461 540.519 505.698 541.775 505.178C543.032 504.658 544.378 504.39 545.738 504.39C547.098 504.39 548.444 504.658 549.7 505.178C550.956 505.698 552.098 506.461 553.059 507.423C553.561 507.926 554.015 508.474 554.416 509.061L609.431 488.12ZM264.624 495.8C266.953 495.818 269.263 495.374 271.42 494.495C273.578 493.617 275.54 492.32 277.194 490.68C278.853 489.021 280.174 487.056 281.085 484.894L344.752 499.384L487.959 356.024L546.378 370.36L913.175 4.92005L909.13 0.875244L544.611 364.037L486.218 349.547L342.858 492.907L282.237 479.083C282.237 478.674 282.237 478.29 282.237 477.88C282.232 474.367 281.186 470.935 279.23 468.017C277.275 465.098 274.499 462.825 271.252 461.484C268.005 460.144 264.434 459.795 260.989 460.484C257.544 461.172 254.381 462.866 251.899 465.352C249.417 467.838 247.727 471.003 247.044 474.449C246.36 477.895 246.714 481.466 248.059 484.71C249.405 487.955 251.682 490.729 254.603 492.68C257.524 494.631 260.958 495.672 264.471 495.672L264.624 495.8ZM256.074 469.483C257.763 467.801 259.913 466.657 262.252 466.194C264.591 465.73 267.014 465.97 269.217 466.881C271.421 467.792 273.305 469.335 274.633 471.315C275.961 473.295 276.674 475.624 276.682 478.008C276.698 479.591 276.395 481.162 275.793 482.626C275.19 484.091 274.3 485.419 273.175 486.533C270.885 488.657 267.862 489.812 264.739 489.756C261.617 489.699 258.637 488.436 256.426 486.231C254.214 484.026 252.942 481.051 252.876 477.928C252.811 474.806 253.957 471.779 256.074 469.483ZM397.36 391.762C395.383 390.068 394.124 387.684 393.842 385.096C393.559 382.508 394.273 379.909 395.839 377.828C397.404 375.747 399.703 374.341 402.269 373.895C404.834 373.45 407.473 373.998 409.648 375.429L481.84 303.032L545.251 315.832L620.925 240.056C619.718 237.916 619.321 235.414 619.806 233.006C620.29 230.598 621.624 228.444 623.565 226.937C625.505 225.431 627.922 224.672 630.376 224.8C632.829 224.927 635.155 225.932 636.929 227.632C638.702 229.331 639.806 231.612 640.038 234.057C640.271 236.503 639.616 238.95 638.194 240.953C636.772 242.957 634.677 244.382 632.292 244.969C629.907 245.556 627.39 245.266 625.2 244.152L547.351 322.104L483.939 309.304L413.821 379.525C415.296 381.699 415.879 384.357 415.449 386.949C415.019 389.541 413.609 391.868 411.511 393.45C409.413 395.032 406.788 395.747 404.178 395.447C401.568 395.147 399.173 393.855 397.488 391.839L397.36 391.762ZM620.362 799.698C623.4 801.988 627.104 803.22 630.909 803.205C633.839 803.213 636.726 802.497 639.313 801.121C641.9 799.745 644.107 797.751 645.738 795.317C647.369 792.883 648.373 790.083 648.662 787.167C648.951 784.251 648.515 781.309 647.394 778.602C646.272 775.895 644.499 773.507 642.233 771.65C639.966 769.793 637.276 768.525 634.401 767.958C631.527 767.39 628.557 767.542 625.754 768.399C622.952 769.255 620.405 770.791 618.339 772.869C615.388 775.825 613.572 779.727 613.211 783.889C612.851 788.052 613.969 792.208 616.368 795.627L575.152 836.843L579.12 866.462L363.671 1082.04L367.69 1086.08L585.29 868.485L581.194 838.84L620.362 799.698ZM622.359 776.888C623.461 775.692 624.794 774.732 626.277 774.063C627.759 773.395 629.362 773.033 630.988 772.999C632.614 772.964 634.23 773.259 635.74 773.864C637.249 774.47 638.621 775.374 639.773 776.522C640.925 777.671 641.833 779.04 642.443 780.547C643.053 782.055 643.352 783.67 643.323 785.297C643.294 786.923 642.936 788.526 642.273 790.011C641.609 791.496 640.652 792.831 639.459 793.938C637.17 796.062 634.147 797.217 631.024 797.16C627.902 797.104 624.922 795.841 622.711 793.636C620.499 791.431 619.227 788.455 619.161 785.333C619.096 782.211 620.242 779.184 622.359 776.888ZM0.969727 1077.43L5.01449 1081.48L74.3393 1012.13V983.531L177.021 880.85V854.61L217.597 814.034L242.506 817.387L406.551 653.343C409.445 655.274 412.85 656.299 416.33 656.287C420.393 656.348 424.356 655.027 427.57 652.54C430.784 650.053 433.057 646.548 434.016 642.599C434.975 638.65 434.564 634.493 432.849 630.808C431.135 627.124 428.219 624.132 424.581 622.323C420.942 620.513 416.797 619.995 412.824 620.851C408.852 621.708 405.289 623.889 402.719 627.037C400.15 630.186 398.727 634.114 398.683 638.177C398.64 642.24 399.979 646.198 402.48 649.4L240.586 811.269L215.6 808.12L171.338 852.357V878.622L68.6817 981.279V1009.9L0.969727 1077.43ZM407.779 629.97C409.469 628.278 411.622 627.125 413.966 626.658C416.31 626.19 418.741 626.428 420.95 627.342C423.159 628.256 425.047 629.805 426.375 631.792C427.704 633.78 428.413 636.117 428.413 638.507C428.413 640.898 427.704 643.235 426.375 645.222C425.047 647.21 423.159 648.758 420.95 649.672C418.741 650.586 416.31 650.825 413.966 650.357C411.622 649.889 409.469 648.737 407.779 647.045C405.512 644.776 404.233 641.702 404.221 638.494C404.219 636.909 404.533 635.338 405.144 633.875C405.755 632.411 406.65 631.084 407.779 629.97ZM424.727 546.463L429.104 500.92L453.987 476.062L502.781 468.383L535.856 435.307C539.582 437.84 544.125 438.876 548.581 438.21C553.036 437.543 557.077 435.224 559.899 431.712C562.721 428.2 564.116 423.754 563.808 419.26C563.5 414.765 561.509 410.552 558.234 407.459C554.959 404.366 550.639 402.619 546.134 402.568C541.63 402.517 537.271 404.164 533.926 407.182C530.581 410.2 528.496 414.366 528.085 418.853C527.674 423.339 528.968 427.815 531.709 431.39L500.067 463.032L451.248 470.712L423.6 498.36L419.248 543.8L110.282 852.843L114.327 856.862L424.727 546.463ZM537.367 412.114C538.994 410.467 541.06 409.323 543.319 408.817C545.579 408.311 547.936 408.464 550.11 409.259C552.284 410.054 554.184 411.457 555.584 413.301C556.984 415.145 557.825 417.352 558.006 419.66C558.188 421.968 557.703 424.28 556.608 426.32C555.514 428.36 553.856 430.043 551.833 431.168C549.81 432.293 547.506 432.813 545.195 432.667C542.885 432.52 540.665 431.713 538.8 430.341L536.24 427.781C534.515 425.473 533.681 422.619 533.893 419.745C534.105 416.871 535.347 414.17 537.392 412.139L537.367 412.114ZM270.077 966.175L362.672 873.605L358.627 843.96L398.743 803.845C397.542 801.691 397.158 799.177 397.663 796.764C398.167 794.35 399.525 792.2 401.488 790.707C403.45 789.215 405.885 788.481 408.346 788.639C410.806 788.798 413.127 789.839 414.881 791.572C416.635 793.304 417.706 795.611 417.896 798.069C418.086 800.528 417.382 802.972 415.915 804.953C414.447 806.934 412.314 808.319 409.907 808.854C407.5 809.389 404.981 809.037 402.813 807.864L364.669 846.008L368.714 875.627L274.122 970.194L270.077 966.175ZM421.987 915.102L319.331 1017.76H293.066L252.49 1058.33L255.869 1083.24L89.9297 1249.18L85.8849 1245.14L249.725 1081.3L246.346 1056.39L290.608 1012.15H316.848L419.504 909.496H448.125L512.688 844.907C511.57 842.71 511.283 840.183 511.879 837.79C512.475 835.398 513.913 833.301 515.931 831.884C517.949 830.467 520.41 829.826 522.863 830.078C525.315 830.331 527.594 831.459 529.281 833.257C530.969 835.054 531.951 837.4 532.048 839.864C532.144 842.327 531.349 844.743 529.807 846.667C528.266 848.591 526.082 849.895 523.656 850.338C521.231 850.781 518.727 850.335 516.605 849.08L450.48 915.205L421.987 915.102ZM962.915 468.894L959.536 443.986L1125.48 278.046L1129.52 282.091L965.68 445.931L969.034 470.84L924.72 515.179H898.455L795.773 617.835H767.178L702.589 682.424C703.702 684.625 703.983 687.154 703.381 689.545C702.779 691.937 701.334 694.031 699.311 695.442C697.289 696.853 694.825 697.488 692.373 697.228C689.92 696.968 687.644 695.832 685.962 694.029C684.28 692.225 683.305 689.875 683.217 687.41C683.129 684.945 683.934 682.532 685.483 680.613C687.032 678.694 689.222 677.398 691.649 676.965C694.077 676.531 696.58 676.988 698.698 678.251L764.797 612.127H793.418L896.074 509.47H922.339L962.915 468.894ZM739.095 798.546L734.717 843.96L709.859 868.843L661.04 876.523L627.965 909.599C624.247 907.056 619.708 906.007 615.251 906.661C610.794 907.314 606.747 909.622 603.915 913.124C601.083 916.627 599.674 921.068 599.969 925.562C600.263 930.057 602.239 934.276 605.504 937.379C608.768 940.482 613.082 942.243 617.586 942.309C622.089 942.376 626.453 940.744 629.808 937.738C633.163 934.733 635.263 930.574 635.69 926.09C636.117 921.606 634.839 917.126 632.112 913.541L663.779 881.874L712.573 874.194L740.221 846.546L744.599 801.106L1053.54 492.19L1049.49 488.12L739.095 798.546ZM626.455 932.92C624.825 934.565 622.757 935.707 620.497 936.21C618.237 936.713 615.88 936.556 613.707 935.758C611.534 934.96 609.635 933.555 608.238 931.709C606.84 929.863 606.003 927.654 605.824 925.346C605.646 923.037 606.135 920.726 607.232 918.688C608.329 916.649 609.989 914.969 612.014 913.846C614.039 912.724 616.344 912.207 618.655 912.357C620.965 912.507 623.184 913.318 625.047 914.693L627.607 917.253C629.155 919.302 629.991 921.801 629.987 924.37C630.006 925.953 629.71 927.524 629.117 928.992C628.524 930.459 627.645 931.795 626.531 932.92H626.455ZM500.272 602.68C500.267 613.416 503.446 623.913 509.408 632.842C515.37 641.771 523.845 648.731 533.763 652.842C543.681 656.952 554.596 658.029 565.126 655.936C575.656 653.843 585.329 648.673 592.92 641.082C600.512 633.49 605.681 623.818 607.775 613.287C609.868 602.757 608.791 591.843 604.68 581.925C600.569 572.007 593.609 563.531 584.68 557.569C575.751 551.608 565.255 548.429 554.519 548.434C540.151 548.474 526.385 554.205 516.233 564.372C506.081 574.538 500.369 588.313 500.349 602.68H500.272ZM554.519 554.04C564.139 554.04 573.543 556.893 581.542 562.237C589.54 567.582 595.775 575.179 599.456 584.066C603.138 592.954 604.101 602.734 602.224 612.169C600.347 621.605 595.715 630.271 588.912 637.074C582.11 643.876 573.443 648.509 564.008 650.385C554.573 652.262 544.793 651.299 535.905 647.618C527.017 643.936 519.421 637.702 514.076 629.703C508.731 621.704 505.879 612.3 505.879 602.68C505.906 589.784 511.053 577.427 520.188 568.325C529.324 559.224 541.7 554.122 554.595 554.143L554.519 554.04ZM554.519 641.874C562.292 641.879 569.892 639.578 576.357 635.264C582.823 630.949 587.863 624.813 590.842 617.633C593.82 610.453 594.602 602.552 593.088 594.927C591.575 587.303 587.834 580.299 582.34 574.8C576.845 569.302 569.843 565.557 562.22 564.039C554.596 562.52 546.694 563.297 539.512 566.271C532.33 569.244 526.192 574.281 521.873 580.743C517.554 587.206 515.248 594.805 515.248 602.578C515.238 607.75 516.249 612.874 518.222 617.655C520.195 622.436 523.092 626.781 526.747 630.441C530.402 634.101 534.743 637.004 539.522 638.983C544.301 640.962 549.423 641.979 554.595 641.976L554.519 641.874ZM554.519 569.016C561.156 569.016 567.645 570.984 573.164 574.672C578.684 578.36 582.985 583.602 585.526 589.734C588.066 595.867 588.73 602.615 587.435 609.125C586.14 615.636 582.944 621.616 578.25 626.309C573.557 631.003 567.576 634.199 561.066 635.494C554.556 636.789 547.808 636.125 541.675 633.585C535.543 631.044 530.301 626.743 526.613 621.224C522.925 615.704 520.957 609.216 520.957 602.578C520.998 593.685 524.56 585.171 530.865 578.9C537.17 572.629 545.703 569.112 554.595 569.119L554.519 569.016ZM536.061 602.578C536.061 598.921 537.146 595.346 539.178 592.306C541.21 589.266 544.098 586.897 547.477 585.499C550.856 584.101 554.573 583.736 558.16 584.451C561.746 585.167 565.039 586.93 567.623 589.517C570.207 592.105 571.965 595.4 572.675 598.987C573.386 602.575 573.016 606.292 571.613 609.669C570.21 613.046 567.837 615.93 564.794 617.958C561.751 619.986 558.175 621.066 554.519 621.061C549.65 621.041 544.987 619.098 541.544 615.655C538.101 612.212 536.158 607.549 536.138 602.68L536.061 602.578ZM486.423 677.56H507.133V698.27H486.423V677.56ZM486.423 712.069H507.133V732.779H486.423V712.069ZM486.423 746.578H507.133V767.288H486.423V746.578ZM486.423 781.112H507.133V801.797H486.423V781.112ZM544.253 698.27H523.543V677.56H544.253V698.27ZM523.543 712.069H544.253V732.779H523.543V712.069Z" fill="url(#paint0_linear_60_60)" fill-opacity="0.1"/>
<defs>
<linearGradient id="paint0_linear_60_60" x1="837.5" y1="41" x2="297.5" y2="1002.5" gradientUnits="userSpaceOnUse">
<stop stop-color="#A53EFC"/>
<stop offset="1" stop-color="#A53EFC" stop-opacity="0"/>
</linearGradient>
</defs>
</svg>
