<svg width="581" height="907" viewBox="0 0 581 907" fill="none" xmlns="http://www.w3.org/2000/svg">
<path d="M2.91121 703.34L-69.0259 775.22L-66.0798 778.141L6.99474 705.126L8.69156 652.053L99.8529 560.901V513.037C102.806 512.741 105.563 511.425 107.647 509.317C109.711 507.281 111.036 504.617 111.412 501.746C111.789 498.875 111.195 495.961 109.726 493.464C108.257 490.967 105.995 489.03 103.299 487.959C100.603 486.888 97.6255 486.744 94.838 487.549C92.0504 488.355 89.6115 490.065 87.9068 492.408C86.2021 494.751 85.3288 497.594 85.425 500.488C85.5211 503.382 86.5812 506.161 88.4377 508.387C90.2943 510.612 92.8412 512.157 95.6762 512.777V559.283L4.60803 650.286L2.91121 703.34ZM92.2826 506.433C90.6407 504.788 89.7188 502.561 89.7188 500.239C89.7188 497.917 90.6407 495.69 92.2826 494.044C93.5118 492.812 95.0799 491.972 96.7882 491.63C98.4966 491.288 100.268 491.46 101.879 492.123C103.489 492.786 104.866 493.912 105.835 495.356C106.804 496.801 107.321 498.5 107.321 500.239C107.321 501.977 106.804 503.676 105.835 505.121C104.866 506.566 103.489 507.691 101.879 508.354C100.268 509.018 98.4966 509.189 96.7882 508.847C95.0799 508.505 93.5118 507.665 92.2826 506.433ZM-28.8246 629.34L62.3367 538.188V489.3L135.057 416.602C137.918 418.201 141.278 418.667 144.468 417.907C147.658 417.147 150.444 415.217 152.272 412.5C154.101 409.784 154.837 406.48 154.334 403.247C153.832 400.014 152.128 397.087 149.561 395.051C146.995 393.014 143.754 392.016 140.483 392.254C137.212 392.493 134.151 393.952 131.909 396.34C129.667 398.728 128.409 401.871 128.384 405.143C128.359 408.415 129.57 411.576 131.775 413.998L58.1413 487.645V536.532L-32.9455 627.554L-34.6236 680.627L-106.561 752.488L-103.633 755.427L-30.5215 682.394L-28.8246 629.34ZM135.113 399.153C136.343 397.924 137.911 397.086 139.619 396.746C141.327 396.406 143.097 396.579 144.706 397.244C146.315 397.908 147.69 399.033 148.658 400.477C149.625 401.922 150.142 403.62 150.142 405.357C150.142 407.094 149.625 408.792 148.658 410.236C147.69 411.681 146.315 412.806 144.706 413.47C143.097 414.134 141.327 414.307 139.619 413.968C137.911 413.628 136.343 412.79 135.113 411.561C133.461 409.912 132.53 407.679 132.521 405.348C132.52 404.195 132.748 403.054 133.193 401.99C133.638 400.927 134.291 399.962 135.113 399.153ZM137.798 552.939L48.8555 641.803C49.7481 643.393 50.0348 645.251 49.6626 647.034C49.2904 648.818 48.2845 650.407 46.8304 651.509C45.3762 652.611 43.5718 653.152 41.7496 653.031C39.9275 652.91 38.2104 652.137 36.9151 650.852C35.6197 649.568 34.8332 647.86 34.7007 646.043C34.5681 644.226 35.0984 642.422 36.1938 640.965C37.2892 639.507 38.8759 638.493 40.6613 638.111C42.4467 637.728 44.3106 638.002 45.9094 638.883L135.411 549.386L176.694 533.667C176.686 531.92 177.308 530.229 178.446 528.902C179.585 527.575 181.165 526.701 182.896 526.44C184.628 526.179 186.395 526.549 187.876 527.481C189.357 528.414 190.452 529.847 190.961 531.518C191.469 533.19 191.358 534.988 190.648 536.585C189.937 538.181 188.674 539.469 187.089 540.213C185.505 540.957 183.705 541.107 182.019 540.636C180.333 540.165 178.873 539.105 177.906 537.648L137.798 552.939ZM388.963 547.359C385.531 547.336 382.231 548.675 379.789 551.079C378.592 552.29 377.637 553.717 376.973 555.283L330.581 544.754L226.274 648.928L183.742 638.511L-83.4208 904.061L-80.4747 907L185.01 643.106L227.561 653.635L331.98 549.461L376.115 559.506C376.115 559.804 376.115 560.083 376.115 560.38C376.115 562.96 376.883 565.481 378.322 567.625C379.76 569.768 381.804 571.437 384.195 572.42C386.585 573.402 389.214 573.655 391.749 573.145C394.283 572.635 396.608 571.385 398.43 569.555C400.252 567.724 401.487 565.395 401.981 562.863C402.474 560.331 402.202 557.71 401.2 555.332C400.197 552.955 398.51 550.927 396.351 549.508C394.192 548.088 391.66 547.34 389.074 547.359H388.963ZM395.172 566.482C393.733 567.92 391.838 568.815 389.811 569.016C387.784 569.216 385.75 568.708 384.056 567.58C382.362 566.451 381.113 564.772 380.522 562.827C379.931 560.883 380.034 558.794 380.813 556.917C381.593 555.039 383.002 553.49 384.798 552.533C386.595 551.576 388.669 551.27 390.666 551.667C392.664 552.065 394.461 553.142 395.752 554.714C397.043 556.285 397.747 558.255 397.745 560.287C397.751 561.442 397.527 562.586 397.085 563.652C396.643 564.719 395.993 565.688 395.172 566.501V566.482ZM292.282 622.959C293.722 624.19 294.639 625.922 294.845 627.803C295.05 629.684 294.53 631.572 293.39 633.084C292.25 634.596 290.575 635.618 288.707 635.942C286.838 636.266 284.916 635.867 283.332 634.828L230.749 687.435L184.563 678.134L129.444 733.197C130.309 734.768 130.577 736.596 130.198 738.348C129.82 740.099 128.821 741.656 127.385 742.731C125.948 743.807 124.171 744.329 122.38 744.202C120.589 744.076 118.903 743.308 117.633 742.041C116.364 740.775 115.595 739.093 115.468 737.306C115.341 735.519 115.864 733.746 116.942 732.313C118.02 730.88 119.58 729.883 121.336 729.506C123.091 729.128 124.924 729.396 126.498 730.258L183.202 673.614L229.388 682.915L280.46 631.888C279.386 630.308 278.961 628.377 279.275 626.493C279.588 624.61 280.614 622.919 282.142 621.769C283.671 620.62 285.583 620.101 287.484 620.319C289.385 620.537 291.13 621.475 292.356 622.94L292.282 622.959ZM129.855 326.529C127.249 324.622 124.019 323.764 120.807 324.124C117.595 324.485 114.637 326.038 112.521 328.475C110.405 330.912 109.286 334.054 109.386 337.277C109.486 340.5 110.799 343.567 113.062 345.869C115.325 348.17 118.374 349.538 121.602 349.699C124.83 349.86 128 348.804 130.483 346.739C132.966 344.675 134.579 341.754 135.001 338.557C135.424 335.361 134.625 332.123 132.763 329.487L162.784 299.537L159.894 278.014L316.82 121.362L313.874 118.442L155.381 276.563L158.383 298.086L129.855 326.529ZM128.382 343.104C126.943 344.541 125.049 345.436 123.023 345.637C120.997 345.838 118.964 345.331 117.27 344.204C115.576 343.077 114.327 341.399 113.734 339.456C113.141 337.512 113.242 335.424 114.02 333.547C114.797 331.669 116.203 330.119 117.998 329.16C119.793 328.201 121.865 327.892 123.862 328.286C125.86 328.681 127.658 329.754 128.951 331.323C130.245 332.892 130.953 334.859 130.955 336.891C130.961 338.045 130.737 339.189 130.295 340.256C129.853 341.322 129.203 342.291 128.382 343.104ZM581 124.711L578.054 121.772L527.541 172.166V192.945L452.77 267.559V286.627L423.216 316.112L405.073 313.675L285.588 432.879C283.479 431.476 281 430.731 278.465 430.74C275.533 430.737 272.687 431.725 270.391 433.545C268.095 435.364 266.485 437.906 265.824 440.756C265.164 443.606 265.491 446.595 266.754 449.235C268.016 451.875 270.139 454.01 272.775 455.291C275.41 456.573 278.404 456.924 281.266 456.289C284.128 455.653 286.689 454.068 288.531 451.792C290.374 449.517 291.388 446.685 291.409 443.76C291.43 440.835 290.456 437.99 288.646 435.688L406.565 318.065L424.67 320.502L456.928 288.357V269.271L531.718 194.675V173.877L581 124.711ZM284.674 449.863C283.235 451.301 281.341 452.197 279.314 452.397C277.287 452.597 275.253 452.09 273.559 450.961C271.865 449.833 270.616 448.153 270.025 446.208C269.433 444.264 269.536 442.175 270.316 440.298C271.096 438.42 272.504 436.871 274.301 435.914C276.098 434.957 278.171 434.651 280.169 435.049C282.166 435.446 283.964 436.523 285.254 438.095C286.545 439.667 287.25 441.637 287.247 443.669C287.251 444.82 287.026 445.96 286.584 447.024C286.142 448.087 285.493 449.052 284.674 449.863ZM272.349 510.544L269.161 543.638L251.036 561.701L215.497 567.282L191.406 591.279C189.728 590.143 187.806 589.415 185.795 589.154C183.784 588.894 181.74 589.108 179.827 589.779C177.914 590.451 176.185 591.56 174.781 593.019C173.376 594.479 172.334 596.246 171.738 598.18C171.143 600.114 171.011 602.161 171.353 604.155C171.695 606.149 172.501 608.035 173.707 609.662C174.912 611.289 176.484 612.611 178.295 613.521C180.106 614.432 182.106 614.905 184.134 614.904C187.579 614.904 190.885 613.545 193.33 611.123C195.776 608.701 197.162 605.413 197.186 601.976C197.174 599.145 196.238 596.396 194.52 594.144L217.566 571.151L253.125 565.571L273.151 545.498L276.339 512.479L501.381 287.91L498.435 285.064L272.349 510.544ZM190.306 608.17C189.12 609.367 187.615 610.198 185.97 610.566C184.324 610.934 182.608 610.822 181.024 610.244C179.44 609.667 178.056 608.647 177.037 607.307C176.017 605.967 175.405 604.363 175.272 602.686C175.14 601.009 175.494 599.33 176.291 597.847C177.088 596.365 178.295 595.142 179.769 594.324C181.243 593.507 182.921 593.129 184.604 593.235C186.286 593.342 187.903 593.928 189.262 594.925L191.126 596.785C192.372 598.467 192.972 600.538 192.818 602.624C192.664 604.709 191.766 606.67 190.287 608.152L190.306 608.17ZM384.972 205.557L317.548 272.824L320.494 294.365L291.275 323.497C292.15 325.062 292.429 326.889 292.062 328.642C291.694 330.396 290.705 331.959 289.276 333.043C287.846 334.128 286.073 334.661 284.28 334.546C282.488 334.431 280.798 333.674 279.52 332.415C278.242 331.156 277.463 329.48 277.324 327.694C277.186 325.907 277.698 324.131 278.767 322.691C279.836 321.252 281.39 320.245 283.143 319.857C284.896 319.468 286.731 319.724 288.31 320.576L316.093 292.858L313.147 271.335L382.045 202.618L384.972 205.557ZM274.344 242.762L349.116 168.166H368.247L397.801 138.681L395.34 120.581L516.204 0L519.151 2.93918L399.815 121.995L402.295 140.077L369.962 172.222H350.85L276.06 246.817H255.232L208.187 293.751C208.971 295.361 209.147 297.199 208.684 298.928C208.22 300.656 207.147 302.16 205.661 303.164C204.176 304.168 202.378 304.603 200.597 304.392C198.816 304.18 197.17 303.335 195.963 302.012C194.755 300.688 194.067 298.975 194.023 297.186C193.979 295.397 194.582 293.652 195.723 292.271C196.864 290.89 198.466 289.965 200.234 289.666C202.003 289.368 203.82 289.715 205.353 290.645L253.498 242.669L274.344 242.762ZM-119.65 567.003L-117.189 585.103L-238.054 705.684L-241 702.745L-121.664 583.689L-124.125 565.589L-91.8302 533.277H-72.7178L2.07214 458.681H22.9186L69.963 411.747C69.1525 410.148 68.9476 408.31 69.3862 406.572C69.8248 404.834 70.8773 403.313 72.3503 402.287C73.8234 401.262 75.618 400.801 77.4043 400.989C79.1906 401.178 80.8487 402.004 82.0738 403.314C83.2989 404.625 84.0086 406.333 84.0727 408.124C84.1368 409.915 83.5508 411.668 82.4225 413.063C81.2942 414.457 79.6994 415.399 77.9311 415.714C76.1628 416.029 74.3398 415.697 72.7973 414.779L24.6341 462.829H3.80623L-70.9651 537.425H-90.0961L-119.65 567.003ZM43.3549 327.366L46.5434 294.365L64.6675 276.284L100.226 270.703L124.298 246.613C126.246 247.93 128.518 248.694 130.868 248.821C133.218 248.948 135.559 248.435 137.638 247.335C139.718 246.236 141.458 244.592 142.672 242.58C143.886 240.568 144.528 238.265 144.529 235.916C144.542 234.224 144.219 232.545 143.579 230.978C142.939 229.41 141.995 227.985 140.8 226.783C139.599 225.58 138.173 224.626 136.602 223.975C135.03 223.324 133.346 222.989 131.645 222.989C129.943 222.989 128.259 223.324 126.688 223.975C125.117 224.626 123.69 225.58 122.489 226.783C121.296 227.985 120.352 229.411 119.712 230.978C119.072 232.546 118.748 234.224 118.76 235.916C118.71 238.736 119.602 241.491 121.296 243.748L98.2307 266.759L62.691 272.34L42.5531 292.505L39.3646 325.487L-185.658 549.982L-182.731 552.921L43.3549 327.366ZM125.398 229.722C127.045 228.079 129.279 227.156 131.607 227.156C133.936 227.156 136.17 228.079 137.817 229.722C138.642 230.529 139.297 231.493 139.742 232.557C140.188 233.621 140.414 234.763 140.408 235.916C140.42 237.551 139.972 239.157 139.117 240.552C138.261 241.946 137.031 243.074 135.566 243.808C134.102 244.541 132.46 244.851 130.828 244.703C129.196 244.554 127.638 243.953 126.331 242.967L124.466 241.106C123.219 239.424 122.62 237.351 122.777 235.264C122.935 233.178 123.838 231.217 125.324 229.74L125.398 229.722ZM217.305 469.693C217.309 461.893 214.994 454.266 210.653 447.778C206.311 441.29 200.139 436.233 192.916 433.245C185.693 430.257 177.744 429.474 170.075 430.993C162.406 432.513 155.36 436.267 149.83 441.782C144.3 447.297 140.533 454.324 139.006 461.974C137.48 469.625 138.261 477.555 141.253 484.763C144.244 491.97 149.311 498.13 155.812 502.464C162.313 506.799 169.956 509.112 177.775 509.112C188.247 509.092 198.283 504.932 205.686 497.544C213.088 490.155 217.253 480.14 217.268 469.693H217.305ZM177.775 505.038C170.769 505.038 163.919 502.965 158.093 499.082C152.267 495.198 147.726 489.678 145.044 483.219C142.363 476.761 141.661 469.654 143.028 462.798C144.395 455.942 147.77 449.644 152.724 444.701C157.679 439.758 163.992 436.392 170.864 435.028C177.736 433.664 184.86 434.364 191.333 437.039C197.807 439.714 203.34 444.245 207.233 450.057C211.125 455.869 213.203 462.703 213.203 469.693C213.184 479.061 209.437 488.038 202.787 494.651C196.137 501.264 187.128 504.974 177.738 504.964L177.775 505.038ZM177.775 441.213C172.114 441.209 166.578 442.881 161.869 446.016C157.16 449.152 153.488 453.61 151.319 458.828C149.15 464.045 148.58 469.787 149.683 475.327C150.785 480.868 153.509 485.957 157.511 489.953C161.514 493.948 166.613 496.669 172.166 497.773C177.719 498.876 183.475 498.311 188.706 496.151C193.937 493.99 198.408 490.33 201.554 485.634C204.7 480.938 206.379 475.416 206.379 469.768C206.384 466.012 205.647 462.291 204.21 458.819C202.773 455.347 200.664 452.192 198.004 449.533C195.345 446.874 192.186 444.764 188.708 443.324C185.231 441.884 181.503 441.141 177.738 441.139L177.775 441.213ZM177.775 494.137C172.94 494.137 168.213 492.706 164.193 490.026C160.172 487.345 157.039 483.535 155.189 479.078C153.34 474.62 152.857 469.716 153.801 464.985C154.746 460.253 157.076 455.908 160.497 452.498C163.917 449.088 168.275 446.767 173.018 445.828C177.761 444.889 182.677 445.375 187.143 447.223C191.61 449.072 195.426 452.201 198.11 456.214C200.794 460.227 202.224 464.944 202.221 469.768C202.186 476.223 199.592 482.402 195.004 486.955C190.416 491.507 184.209 494.063 177.738 494.063L177.775 494.137ZM191.238 469.768C191.238 472.424 190.448 475.021 188.969 477.23C187.49 479.438 185.387 481.16 182.927 482.176C180.467 483.193 177.761 483.459 175.149 482.941C172.538 482.423 170.139 481.143 168.256 479.265C166.373 477.387 165.091 474.993 164.572 472.388C164.052 469.783 164.319 467.082 165.338 464.628C166.357 462.174 168.082 460.076 170.296 458.6C172.51 457.125 175.113 456.337 177.775 456.337C181.328 456.342 184.734 457.749 187.25 460.252C189.766 462.755 191.186 466.149 191.201 469.693L191.238 469.768ZM227.412 415.281H212.327V400.157H227.412V415.281ZM227.412 390.205H212.327V375.081H227.412V390.205ZM227.412 365.129H212.327V350.005H227.412V365.129ZM227.412 340.034H212.327V324.929H227.412V340.034ZM185.29 400.157H200.375V415.281H185.29V400.157ZM200.375 390.131H185.29V375.081H200.375V390.131Z" fill="url(#paint0_linear_182_129)" fill-opacity="0.1"/>
<defs>
<linearGradient id="paint0_linear_182_129" x1="538.368" y1="184.974" x2="-23.0897" y2="865.332" gradientUnits="userSpaceOnUse">
<stop stop-color="#A53EFC" stop-opacity="0"/>
<stop offset="1" stop-color="#A53EFC"/>
</linearGradient>
</defs>
</svg>
